HIERARCHY
ROOT Hips
{
	OFFSET 0.00000 0.00000 0.00000
	CHANNELS 6 Xposition Yposition Zposition Zrotation Yrotation Xrotation 
	JOINT RightUpLegDummy
	{
		OFFSET 0 0 0
		CHANNELS 3 Zrotation Yrotation Xrotation
		JOINT RightUpLeg
		{
			OFFSET -3.52197 -3.41223 0.04002
			CHANNELS 3 Zrotation Yrotation Xrotation
			JOINT RightLeg
			{
				OFFSET 0.00006 -17.42390 1.60435
				CHANNELS 3 Zrotation Yrotation Xrotation
				JOINT RightFoot
				{
					OFFSET 0.06153 -16.50078 -1.63901
					CHANNELS 3 Zrotation Yrotation Xrotation
					JOINT RightToes
					{
						OFFSET 0.00298 -1.73825 3.34613
						CHANNELS 3 Zrotation Yrotation Xrotation
						End Site
						{
							OFFSET 0.00480 -0.05416 3.85043
						}
					}
				}
			}
		}
	}
	JOINT SpineDummy
	{
		OFFSET 0 0 0
		CHANNELS 3 Zrotation Yrotation Xrotation
		JOINT Spine
		{
			OFFSET 0.00000 4.68130 0.00000
			CHANNELS 3 Zrotation Yrotation Xrotation
			JOINT Spine1
			{
				OFFSET -0.00000 10.10138 0.05002
				CHANNELS 3 Zrotation Yrotation Xrotation
				JOINT HEadDummy
				{
					OFFSET 0 0 0
					CHANNELS 3 Zrotation Yrotation Xrotation
					JOINT Head
					{
						OFFSET -0.00000 3.43865 0.00438
						CHANNELS 3 Zrotation Yrotation Xrotation
						End Site
						{
							OFFSET -0.11417 5.02924 0.98962
						}
					}
				}
				JOINT LeftShoulder1Dummy
				{
					OFFSET 0 0 0
					CHANNELS 3 Zrotation Yrotation Xrotation
					JOINT LeftShoulder1
					{
						OFFSET 3.53937 -0.14262 -0.08662
						CHANNELS 3 Zrotation Yrotation Xrotation
						JOINT LeftArm
						{
							OFFSET 4.04833 -0.00133 0.12681
							CHANNELS 3 Zrotation Yrotation Xrotation
							JOINT LeftForeArm
							{
								OFFSET 10.33880 -0.01036 -0.55515
								CHANNELS 3 Zrotation Yrotation Xrotation
								JOINT LeftHand
								{
									OFFSET 8.69677 0.07543 0.40060
									CHANNELS 3 Zrotation Yrotation Xrotation
									End Site
									{
										OFFSET 5.28377 -0.21905 0.59205
									}
								}
							}
						}
					}
				}
				JOINT RightShoulderDummy
				{
					OFFSET 0 0 0
					CHANNELS 3 Zrotation Yrotation Xrotation
					JOINT RightShoulder
					{
						OFFSET -3.53937 -0.14262 -0.08660
						CHANNELS 3 Zrotation Yrotation Xrotation
						JOINT RightArm
						{
							OFFSET -4.04833 -0.00133 0.12683
							CHANNELS 3 Zrotation Yrotation Xrotation
							JOINT RightForeArm
							{
								OFFSET -10.37987 -0.01039 -0.55511
								CHANNELS 3 Zrotation Yrotation Xrotation
								JOINT RightHand
								{
									OFFSET -8.67398 0.07538 0.40058
									CHANNELS 3 Zrotation Yrotation Xrotation
									End Site
									{
										OFFSET -5.24810 -0.21916 0.59204
									}
								}
							}
						}
					}
				}
			}
		}
	}
	JOINT LeftUpLegDummy
	{
		OFFSET 0 0 0
		CHANNELS 3 Zrotation Yrotation Xrotation
		JOINT LeftUpLeg
		{
			OFFSET 3.52197 -3.41223 0.04002
			CHANNELS 3 Zrotation Yrotation Xrotation
			JOINT LeftLeg
			{
				OFFSET -0.00012 -17.42399 1.60337
				CHANNELS 3 Zrotation Yrotation Xrotation
				JOINT LeftFoot
				{
					OFFSET -0.09972 -16.50070 -1.63802
					CHANNELS 3 Zrotation Yrotation Xrotation
					JOINT LeftToes
					{
						OFFSET -0.01575 -1.73823 3.34611
						CHANNELS 3 Zrotation Yrotation Xrotation
						End Site
						{
							OFFSET 0.03150 -0.01868 3.85031
						}
					}
				}
			}
		}
	}
}
MOTION
Frames: 9
Frame Time: 0.033333
-2.5938 38.5270 -1.4290 -2.1124 -2.6077 -3.8698 0.0000 0.0000 0.0000 2.8166 -2.0825 -2.7658 -5.5487 -9.5701 24.6078 2.0959 0.0629 -18.5269 0.0000 -0.0000 0.0000 0.0000 0.0000 0.0000 2.5023 -0.0734 8.6935 2.3526 -0.4705 0.4649 -0.0000 0.0000 -0.0000 0.3498 -1.8075 -4.0799 -0.0000 0.0000 -0.0000 -34.1516 -2.9308 2.5854 -42.1981 -16.7149 -20.9558 -8.9359 5.2463 44.4375 15.0689 -4.2705 -1.2227 -0.0000 0.0000 -0.0000 34.6610 5.1808 3.5328 40.6982 6.9383 -13.0138 12.0693 -0.0965 23.9282 -11.3762 2.1762 -0.7238 0.0000 0.0000 0.0000 8.2886 -1.3667 -14.6140 16.5587 13.2678 46.0302 -0.7915 0.0800 -1.3417 0.0000 0.0000 -0.0000
-2.7811 38.4553 -1.1124 -1.6084 -2.7679 -4.3486 0.0000 0.0000 0.0000 2.4305 -2.4975 -2.0125 -5.3731 -9.1422 25.2105 1.6068 0.0398 -19.2461 0.0000 -0.0000 0.0000 0.0000 0.0000 0.0000 2.6565 0.4423 9.4367 1.6896 0.2194 0.7627 -0.0000 0.0000 -0.0000 0.5514 -2.0914 -4.4772 -0.0000 0.0000 -0.0000 -34.2779 -2.9316 2.5940 -42.2828 -15.9772 -21.0641 -8.9617 5.2518 44.2200 14.7013 -4.2432 -1.1883 -0.0000 0.0000 -0.0000 34.5153 5.1641 3.5132 40.2862 7.2680 -12.8194 12.1760 -0.2987 23.9921 -11.3498 2.1297 -0.7178 0.0000 0.0000 0.0000 6.9734 0.3315 -17.0795 18.1555 12.7261 49.8488 2.0206 -0.1999 0.2294 0.0000 0.0000 -0.0000
-2.9738 38.4722 -0.6962 -0.9059 -3.1945 -4.4386 0.0000 0.0000 0.0000 1.9010 -2.6864 -1.1349 -5.1564 -8.6519 24.9412 1.3578 0.0264 -19.6990 0.0000 -0.0000 0.0000 0.0000 0.0000 0.0000 2.4111 1.0388 9.6718 1.2039 0.9387 0.8959 -0.0000 0.0000 -0.0000 0.8084 -2.1218 -4.4165 -0.0000 0.0000 -0.0000 -34.5774 -2.9161 2.6073 -42.1986 -14.6486 -21.3448 -8.9505 5.2488 44.3379 14.3737 -4.3428 -1.1724 -0.0000 0.0000 -0.0000 34.5661 5.1677 3.5191 39.6279 7.5559 -12.7814 12.2568 -0.8213 24.2590 -11.4449 1.9795 -0.7103 0.0000 0.0000 0.0000 5.1923 2.9416 -18.9140 16.4289 11.2033 50.2130 1.9004 -0.1709 -0.9261 0.0000 0.0000 -0.0000
-3.1463 38.5015 -0.1854 -0.1671 -3.4689 -4.1930 0.0000 0.0000 0.0000 1.2383 -2.9593 -0.3417 -4.8384 -8.1259 24.4140 1.4487 0.0377 -20.2298 0.0000 -0.0000 0.0000 0.0000 0.0000 0.0000 2.0169 1.4561 9.5200 0.7389 1.4532 0.8197 -0.0000 0.0000 -0.0000 1.0403 -2.0377 -3.8753 -0.0000 0.0000 -0.0000 -34.6168 -2.9129 2.6085 -42.3325 -12.8532 -21.8671 -8.8059 5.2414 44.6739 14.1797 -4.5610 -1.1810 -0.0000 0.0000 -0.0000 34.6529 5.1724 3.5286 39.0862 7.7771 -13.0518 12.1888 -1.4473 24.7743 -11.6220 1.8626 -0.7109 0.0000 0.0000 0.0000 3.1191 5.2340 -20.4382 12.9904 9.4875 47.8431 0.2033 0.0004 -2.5403 0.0000 0.0000 -0.0000
-3.2839 38.5374 0.3944 0.4339 -3.4638 -3.7849 0.0000 0.0000 0.0000 0.6127 -3.3480 0.5838 -4.4872 -7.8353 23.5593 1.4652 0.0428 -20.6611 0.0000 -0.0000 0.0000 0.0000 0.0000 0.0000 1.7664 1.6351 9.2664 0.2092 1.7355 0.6397 -0.0000 0.0000 -0.0000 1.1019 -1.8966 -3.2885 -0.0000 0.0000 -0.0000 -34.3897 -2.9040 2.5902 -42.7067 -10.9219 -22.5647 -8.5358 5.2329 45.0981 13.8609 -4.5665 -1.1541 -0.0000 0.0000 -0.0000 34.5909 5.1574 3.5171 38.8860 7.7993 -13.5153 11.9973 -1.5916 24.9149 -11.6822 1.9093 -0.7190 0.0000 0.0000 0.0000 1.1018 6.6164 -21.6484 10.2649 8.6380 43.5698 -0.9340 0.0867 -3.0578 0.0000 0.0000 -0.0000
-3.3882 38.5995 1.0084 0.8863 -3.4063 -3.3546 0.0000 0.0000 0.0000 0.1563 -3.6163 1.8335 -4.2664 -7.8810 22.1436 1.2977 0.0303 -20.7957 0.0000 -0.0000 0.0000 0.0000 0.0000 0.0000 1.6385 1.7455 9.1099 -0.2342 1.9352 0.5197 -0.0000 0.0000 -0.0000 0.9303 -1.7096 -3.1845 -0.0000 0.0000 -0.0000 -34.3519 -2.8503 2.5661 -42.8783 -9.1858 -23.2640 -8.2663 5.2250 45.4912 13.3183 -4.2831 -1.0765 -0.0000 0.0000 -0.0000 34.4413 5.1314 3.4934 38.7599 7.7201 -13.8109 11.8852 -1.1543 24.2400 -11.5707 2.0522 -0.7251 0.0000 0.0000 0.0000 -0.5952 7.4947 -22.2775 8.4819 8.6977 37.6764 -1.1012 0.0998 -2.5607 0.0000 0.0000 -0.0000
-3.4632 38.6629 1.6509 1.2538 -3.4808 -2.9421 0.0000 0.0000 0.0000 -0.1885 -3.7074 3.2717 -4.1264 -7.9165 20.4166 1.3116 0.0315 -20.8131 0.0000 -0.0000 0.0000 0.0000 0.0000 0.0000 1.4773 1.9032 8.9748 -0.4664 2.1418 0.6206 -0.0000 0.0000 -0.0000 0.6422 -1.5723 -3.6733 -0.0000 0.0000 -0.0000 -34.6319 -2.7790 2.5542 -42.7025 -7.7630 -23.8080 -8.0959 5.2190 45.7754 12.7350 -3.9686 -0.9950 -0.0000 0.0000 -0.0000 34.3462 5.1131 3.4778 38.4370 7.8053 -13.7480 11.9446 -0.6142 23.3305 -11.5692 2.1738 -0.7362 0.0000 0.0000 0.0000 -1.9302 8.3097 -22.1754 6.6803 8.8134 30.2606 -1.0878 0.1055 -0.8108 0.0000 0.0000 -0.0000
-3.5093 38.7471 2.3307 1.5418 -3.6526 -2.5526 0.0000 0.0000 0.0000 -0.5248 -3.7669 4.9828 -3.8480 -7.7423 18.1767 1.4152 0.0376 -20.5185 0.0000 -0.0000 0.0000 0.0000 0.0000 0.0000 1.2765 2.0622 8.8157 -0.5812 2.3239 0.8651 -0.0000 0.0000 -0.0000 0.4200 -1.5682 -4.4022 -0.0000 0.0000 -0.0000 -34.8442 -2.7586 2.5507 -42.5581 -6.5407 -24.2023 -7.9895 5.2134 46.0169 12.2370 -3.7933 -0.9373 -0.0000 0.0000 -0.0000 34.2677 5.0994 3.4654 38.0863 8.0890 -13.4713 12.0595 -0.3207 23.0480 -11.8497 2.2626 -0.7631 0.0000 0.0000 0.0000 -2.9637 8.9394 -21.3046 4.8717 8.7500 21.4959 -1.0982 0.1175 2.5256 0.0000 0.0000 -0.0000
-3.5277 38.8784 3.0385 1.7255 -3.9022 -2.1928 0.0000 0.0000 0.0000 -0.8504 -3.8735 7.0933 -3.4238 -7.5673 15.1673 1.1404 0.0102 -19.5864 0.0000 -0.0000 0.0000 0.0000 0.0000 0.0000 1.0875 2.1857 8.8556 -0.6994 2.4646 0.8433 -0.0000 0.0000 -0.0000 0.3514 -1.6344 -4.9176 -0.0000 0.0000 -0.0000 -34.7956 -2.7860 2.5507 -42.6309 -5.3583 -24.5602 -7.8732 5.2053 46.3546 11.7868 -3.7391 -0.8963 -0.0000 0.0000 -0.0000 34.0948 5.0776 3.4416 37.9837 8.3166 -13.2147 12.1174 -0.2030 23.3807 -12.1371 2.2970 -0.7854 0.0000 0.0000 0.0000 -2.8136 7.2883 -19.7120 3.1363 10.7339 12.1012 -0.8042 0.0855 5.8782 0.0000 0.0000 -0.0000
